<?xml version="1.0" encoding="UTF-8"?>
<svg width="200px" height="200px" viewBox="0 0 200 200" version="1.1" xmlns="http://www.w3.org/2000/svg" xmlns:xlink="http://www.w3.org/1999/xlink">
    <title>Group</title>
    <defs>
        <linearGradient x1="0%" y1="100%" x2="100%" y2="100%" id="linearGradient-1">
            <stop stop-color="#469FDF" offset="0%"></stop>
            <stop stop-color="#9287DE" offset="100%"></stop>
        </linearGradient>
    </defs>
    <g id="Page-1" stroke="none" stroke-width="1" fill="none" fill-rule="evenodd">
        <g id="Group">
            <circle id="Oval" stroke="#9AA2DB" cx="100" cy="100" r="99.5"></circle>
            <path d="M157.656541,141.484898 C157.519526,141.345335 150.559918,134.860747 114.657202,101.43848 C133.098095,82.9692431 149.345122,66.6990514 150.911547,65.1304832 C151.086858,64.9534746 151.228121,64.7458354 151.321737,64.5169116 L160.85318,41.6419584 C161.150191,40.9288263 160.988492,40.1058944 160.441291,39.5604031 C159.894088,39.0115131 159.070288,38.8532184 158.359689,39.1485232 L135.484224,48.6797537 C135.255295,48.775066 135.047651,48.914625 134.870639,49.0899342 C133.284345,50.6719442 116.692705,67.2426256 97.9866745,85.9186088 L79.6104865,68.812501 C80.4580988,66.6603165 80.9380914,64.3268316 80.9380914,61.8776866 C80.9380914,44.524965 64.2512021,42.4705764 52.0670757,40.9701973 C48.0331508,40.4723512 44.2231876,40.0034582 41.5101575,39.0997015 C40.8352877,38.872477 40.0991552,39.0409826 39.588553,39.530317 C39.0779291,40.0204946 38.8796533,40.7523624 39.0736808,41.4306156 C39.9655625,44.5529378 40.4267972,48.394405 40.9187069,52.4622252 C42.4479862,65.1488921 44.3508981,80.938274 61.8750295,80.938274 C64.3242293,80.938274 66.6621018,80.4583139 68.8134848,79.6115703 L85.9106075,97.9795041 C63.7889434,120.067995 42.5082249,141.315558 42.3513646,141.474594 C40.1897638,143.634447 39,146.507519 39,149.562523 C39,152.618399 40.1897203,155.488879 42.3496217,157.64871 C44.5095231,159.810263 47.3826597,161 50.4377326,161 C53.4912804,161 56.364221,159.810306 58.5241006,157.650453 C58.6823901,157.493869 79.5629927,136.581314 101.447188,114.667327 C141.222175,157.391204 141.400822,157.574203 141.479252,157.650453 C143.707976,159.88087 146.637342,160.995643 149.56562,160.995643 C152.493897,160.995643 155.423264,159.880827 157.651988,157.650453 C162.110525,153.190273 162.110525,145.935645 157.657945,141.482219 L157.656541,141.484898 Z M148.386313,61.6556689 L139.783396,60.2225857 L138.35028,51.6181176 L144.976322,48.8600519 C146.213711,51.6028677 148.403285,53.7934168 151.148776,55.0306249 L148.386313,61.6556689 Z M152.612392,51.5142218 C150.793749,50.6640796 149.339458,49.2097336 148.490887,47.3945516 L155.555266,44.450872 L152.612392,51.5142218 Z M77.123357,61.8802791 C77.123357,63.4563416 76.8816614,64.9797263 76.4348709,66.4110448 C74.0044072,58.5002325 67.0446014,52.1542848 60.4296704,50.499881 C55.4247365,49.2497539 50.7790563,46.4285751 47.7289943,44.2593759 C48.9833977,44.434683 50.2777568,44.5963785 51.5986516,44.7589213 C63.562302,46.232003 77.123357,47.901722 77.123357,61.8802791 L77.123357,61.8802791 Z M44.7011977,52.0094101 C44.4586524,49.9925363 44.2016411,48.067511 43.9139985,46.1937255 C47.0440157,48.6012599 52.9042742,52.5472982 59.5030834,54.195602 C65.2849116,55.6406019 73.196119,62.4987743 73.4989465,71.7228268 C70.698336,75.0246629 66.5299905,77.126763 61.872328,77.126763 C48.7139247,77.130166 46.5292088,67.1826933 44.7013502,52.0100636 L44.7011977,52.0094101 Z M72.332581,77.7992858 C74.503528,76.3679019 76.3621487,74.507689 77.7934992,72.3358756 L95.2853871,88.6189208 C93.0719135,90.8282055 90.8397038,93.0568795 88.6074941,95.286425 L72.332581,77.7992858 Z M45.045419,144.173686 C45.2360479,143.983061 128.096429,61.246534 134.945997,54.4058337 L136.082102,61.226709 L43.8874412,153.419306 C43.2023755,152.260243 42.8100503,150.947068 42.8100503,149.566728 C42.8100503,147.529419 43.6031972,145.613718 45.0457458,144.173903 L45.045419,144.173686 Z M55.827824,154.957592 C53.4108677,157.374494 49.5013418,157.737008 46.5994256,156.09964 L138.778836,63.9222935 L145.599864,65.0583726 C130.631249,80.0445169 56.1785811,154.606189 55.827824,154.956938 L55.827824,154.957592 Z M154.950483,154.959294 C151.978633,157.932602 147.140581,157.932602 144.193567,154.985674 C143.831024,154.604425 130.337136,140.113469 104.137539,111.974227 C106.752749,109.354936 109.372099,106.732159 111.959205,104.141625 C133.17609,123.894256 154.477069,143.726187 154.952008,144.17715 C157.924729,147.148062 157.924729,151.986005 154.951156,154.959314 L154.950483,154.959294 Z" id="Shape" fill="url(#linearGradient-1)" fill-rule="nonzero" transform="translate(100.000000, 100.000000) scale(1, -1) translate(-100.000000, -100.000000) "></path>
        </g>
    </g>
</svg>