<?xml version="1.0" encoding="utf-8"?>
<!-- Svg Vector Icons : http://www.onlinewebfonts.com/icon -->
<!DOCTYPE svg PUBLIC "-//W3C//DTD SVG 1.1//EN" "http://www.w3.org/Graphics/SVG/1.1/DTD/svg11.dtd">
<svg version="1.1" xmlns="http://www.w3.org/2000/svg" xmlns:xlink="http://www.w3.org/1999/xlink" x="0px" y="0px" viewBox="0 0 1000 1000" enable-background="new 0 0 1000 1000" xml:space="preserve">
<metadata> Svg Vector Icons : http://www.onlinewebfonts.com/icon </metadata>
<g><path d="M34.6,228.4L472,481c8.8,5.1,18.5,7.1,28,6.4c9.5,0.7,19.2-1.3,28-6.4l437.4-252.6c23.7-13.7,31.6-44.3,17.7-68.4c-13.9-24.1-44.4-32.5-68.1-18.8L500,380.9L84.9,141.2C61.2,127.5,30.8,136,16.9,160C2.9,184.1,10.9,214.7,34.6,228.4z"/><path d="M915.1,519L500,758.7L84.9,519c-23.7-13.7-54.2-5.2-68.1,18.8c-13.9,24.1-6,54.7,17.7,68.4L472,858.8c8.8,5.1,18.5,7.1,28,6.4c9.5,0.7,19.2-1.3,28-6.4l437.4-252.6c23.7-13.7,31.6-44.3,17.7-68.4C969.2,513.8,938.8,505.4,915.1,519z"/></g>
</svg>